<mxfile host="app.diagrams.net" modified="2022-01-25T13:19:32.235Z" agent="5.0 (Macintosh; Intel Mac OS X 10_14_6) AppleWebKit/537.36 (KHTML, like Gecko) Chrome/97.0.4692.99 Safari/537.36" etag="_7U5oSPjaQICrxLWR5x0" version="16.4.5" type="github">
  <diagram id="hieO9g39WpFTUk1VyaVL" name="Page-1">
    <mxGraphModel dx="2404" dy="985" grid="1" gridSize="10" guides="1" tooltips="1" connect="1" arrows="1" fold="1" page="1" pageScale="1" pageWidth="827" pageHeight="1169" math="0" shadow="0">
      <root>
        <mxCell id="0" />
        <mxCell id="1" parent="0" />
        <mxCell id="pbacP5-wRvRaZsXroCSK-2" value="" style="sketch=0;aspect=fixed;pointerEvents=1;shadow=0;dashed=0;html=1;strokeColor=none;labelPosition=center;verticalLabelPosition=bottom;verticalAlign=top;align=center;fillColor=#00188D;shape=mxgraph.azure.user" vertex="1" parent="1">
          <mxGeometry x="260" y="20" width="47" height="50" as="geometry" />
        </mxCell>
        <mxCell id="pbacP5-wRvRaZsXroCSK-3" style="edgeStyle=orthogonalEdgeStyle;rounded=0;orthogonalLoop=1;jettySize=auto;html=1;entryX=0.604;entryY=-0.083;entryDx=0;entryDy=0;entryPerimeter=0;exitX=0.87;exitY=0.65;exitDx=0;exitDy=0;exitPerimeter=0;" edge="1" parent="1" source="pbacP5-wRvRaZsXroCSK-4" target="pbacP5-wRvRaZsXroCSK-5">
          <mxGeometry relative="1" as="geometry">
            <mxPoint x="559.6949999999999" y="115.005" as="targetPoint" />
            <Array as="points">
              <mxPoint x="556" y="53" />
            </Array>
          </mxGeometry>
        </mxCell>
        <mxCell id="pbacP5-wRvRaZsXroCSK-4" value="" style="sketch=0;aspect=fixed;pointerEvents=1;shadow=0;dashed=0;html=1;strokeColor=none;labelPosition=center;verticalLabelPosition=bottom;verticalAlign=top;align=center;fillColor=#00188D;shape=mxgraph.azure.user" vertex="1" parent="1">
          <mxGeometry x="360" y="20" width="47" height="50" as="geometry" />
        </mxCell>
        <mxCell id="pbacP5-wRvRaZsXroCSK-5" value="负载均衡+路由管理" style="rounded=0;whiteSpace=wrap;html=1;align=center;fontColor=#1A1A1A;fillColor=#E6E6E6;" vertex="1" parent="1">
          <mxGeometry x="-380" y="130" width="1549" height="20" as="geometry" />
        </mxCell>
      </root>
    </mxGraphModel>
  </diagram>
</mxfile>
